<?xml version="1.0" encoding="UTF-8" standalone="no"?><!-- Generator: Gravit.io --><svg xmlns="http://www.w3.org/2000/svg" xmlns:xlink="http://www.w3.org/1999/xlink" style="isolation:isolate" viewBox="0 0 640 320" width="640pt" height="320pt"><defs><clipPath id="_clipPath_y4k4H0NcXEIQdpJSCcoZY0JaI3blcrsA"><rect width="640" height="320"/></clipPath></defs><g clip-path="url(#_clipPath_y4k4H0NcXEIQdpJSCcoZY0JaI3blcrsA)"><g><g><g><path d=" M 180 216 L 152 216 L 152 300 L 264 300 L 264 216 L 236 216 L 236 188 L 180 188 L 180 216 Z " fill="rgb(225,63,42)"/><rect x="182.8" y="190.8" width="50.4" height="25.2" transform="matrix(1,0,0,1,0,0)" fill="rgb(215,59,53)"/></g><path d=" M 154.8 218.8 L 182.8 218.8 L 182.8 216 L 233.2 216 L 233.2 218.8 L 261.2 218.8 L 261.2 297.2 L 154.8 297.2 L 154.8 218.8 Z " fill="rgb(241,78,71)"/></g><g><g><path d=" M 180 132 L 152 132 L 152 216 L 264 216 L 264 132 L 236 132 L 236 104 L 180 104 L 180 132 Z " fill="rgb(225,63,42)"/><rect x="182.8" y="106.8" width="50.4" height="25.2" transform="matrix(1,0,0,1,0,0)" fill="rgb(215,59,53)"/></g><path d=" M 154.8 134.8 L 182.8 134.8 L 182.8 132 L 233.2 132 L 233.2 134.8 L 261.2 134.8 L 261.2 213.2 L 154.8 213.2 L 154.8 134.8 Z " fill="rgb(241,78,71)"/></g><g><g><path d=" M 180 48 L 152 48 L 152 132 L 264 132 L 264 48 L 236 48 L 236 20 L 180 20 L 180 48 Z " fill="rgb(234,186,12)"/><rect x="182.8" y="22.8" width="50.4" height="25.2" transform="matrix(1,0,0,1,0,0)" fill="rgb(234,153,22)"/></g><path d=" M 154.8 50.8 L 182.8 50.8 L 182.8 48 L 233.2 48 L 233.2 50.8 L 261.2 50.8 L 261.2 129.2 L 154.8 129.2 L 154.8 50.8 Z " fill="rgb(255,203,6)"/></g><g><g><path d=" M 292 132 L 264 132 L 264 216 L 376 216 L 376 132 L 348 132 L 348 104 L 292 104 L 292 132 Z " fill="rgb(234,186,12)"/><rect x="294.8" y="106.8" width="50.4" height="25.2" transform="matrix(1,0,0,1,0,0)" fill="rgb(234,153,22)"/></g><path d=" M 266.8 134.8 L 294.8 134.8 L 294.8 132 L 345.2 132 L 345.2 134.8 L 373.2 134.8 L 373.2 213.2 L 266.8 213.2 L 266.8 134.8 Z " fill="rgb(255,203,6)"/></g><g><g><path d=" M 404 216 L 376 216 L 376 300 L 488 300 L 488 216 L 460 216 L 460 188 L 404 188 L 404 216 Z " fill="rgb(234,186,12)"/><rect x="406.8" y="190.8" width="50.4" height="25.2" transform="matrix(1,0,0,1,0,0)" fill="rgb(234,153,22)"/></g><path d=" M 378.8 218.8 L 406.8 218.8 L 406.8 216 L 457.2 216 L 457.2 218.8 L 485.2 218.8 L 485.2 297.2 L 378.8 297.2 L 378.8 218.8 Z " fill="rgb(255,203,6)"/></g><g><g><path d=" M 404 132 L 376 132 L 376 216 L 488 216 L 488 132 L 460 132 L 460 104 L 404 104 L 404 132 Z " fill="rgb(5,131,189)"/><rect x="406.8" y="106.8" width="50.4" height="25.2" transform="matrix(1,0,0,1,0,0)" fill="rgb(0,138,202)"/></g><path d=" M 378.8 134.8 L 406.8 134.8 L 406.8 132 L 457.2 132 L 457.2 134.8 L 485.2 134.8 L 485.2 213.2 L 378.8 213.2 L 378.8 134.8 Z " fill="rgb(1,151,220)"/></g><g><g><path d=" M 404 48 L 376 48 L 376 132 L 488 132 L 488 48 L 460 48 L 460 20 L 404 20 L 404 48 Z " fill="rgb(5,131,189)"/><rect x="406.8" y="22.8" width="50.4" height="25.2" transform="matrix(1,0,0,1,0,0)" fill="rgb(0,138,202)"/></g><path d=" M 378.8 50.8 L 406.8 50.8 L 406.8 48 L 457.2 48 L 457.2 50.8 L 485.2 50.8 L 485.2 129.2 L 378.8 129.2 L 378.8 50.8 Z " fill="rgb(1,151,220)"/></g></g></g></svg>